
        <svg xmlns="http://www.w3.org/2000/svg" xmlns:xlink="http://www.w3.org/1999/xlink" version="1.1" width="3146.6992665036673" 
        height="792.1760391198044" viewBox="0 0 3146.6992665036673 792.1760391198044">
			
			<g transform="scale(7.334963325183374) translate(10, 10)">
				<defs id="SvgjsDefs1015"></defs><g id="SvgjsG1016" featureKey="rootContainer" transform="matrix(1,0,0,1,0,0)" fill="#111111"><rect xmlns="http://www.w3.org/2000/svg" width="409" height="88" rx="10" ry="10"></rect></g><g id="SvgjsG1017" featureKey="nameLeftFeature-0" transform="matrix(0.637730900834336,0,0,0.637730900834336,18.941239158556474,26.386093250745656)" fill="#f4f9f4"><path d="M1.6602 40.078125 l6.6992 -29.082 l10.391 0 l2.1094 10.43 c2.3242 -3.457 4.5898 -6.9727 6.9336 -10.43 l10.371 0 l-6.6992 29.082 l-9.7656 0 l2.5 -10.84 c-0.97656 1.4844 -1.9336 2.9883 -2.8711 4.5117 l-6.9141 0 l-0.83984 -4.5508 l-2.5195 10.879 l-9.3945 0 z M49.154804687500004 40.52734 c-7.793 0 -11.66 -3.7305 -9.9414 -11.348 l4.1602 -18.262 l9.7852 0 l-4.043 17.852 c-0.41016 1.7383 -0.87891 4.4531 1.6992 4.4531 c2.4414 0 3.2617 -2.4805 3.7305 -4.4531 l4.043 -17.852 l9.8047 0 l-4.1602 18.242 c-1.7578 7.7734 -7.3242 11.367 -15.078 11.367 z M65.400386875 37.8711 l1.8359 -8.0664 l2.9883 0 c0.39063 4.1797 9.707 5.918 10.625 1.8359 c0.48828 -2.0703 -6.8164 -2.6367 -9.2188 -4.5117 c-2.3828 -1.8555 -2.6367 -4.4141 -2.0117 -7.1484 c2.3438 -10.313 16.367 -11.309 24.453 -7.2461 l-1.7969 7.832 l-3.0078 0 c0.17578 -2.9492 -8.7305 -4.9414 -9.5313 -1.4063 c-0.625 2.7344 8.4375 1.9336 10.918 6.2695 c2.4023 4.2969 -1.3672 9.9414 -4.8242 12.305 c-6.0742 4.0039 -14.16 3.3203 -20.43 0.13672 z M108.5987890625 10.918 l-6.6992 29.082 l-9.8242 0 l6.6992 -29.082 l9.8242 0 z M109.41401875 25.508 c2.0117 -8.75 8.7109 -15.137 17.91 -15.137 c5.1758 0 8.1055 1.4648 9.8438 2.7344 l-1.875 8.1445 l-3.125 0 c-12.637 -13.613 -22.285 21.719 -1.7773 8.457 l2.9492 0 l-1.8359 7.9883 c-10.313 5.9375 -25.781 3.8477 -22.09 -12.188 z M140.9716546875 40.039063 l-9.8633 0 l16.25 -29.141 l9.7461 0 l2.7734 29.141 l-10.02 0 l-0.39063 -5.5078 l-5.5469 0 c-1.0352 1.8164 -1.9336 3.6914 -2.9492 5.5078 z M146.4985546875 27.715 l2.7148 0 l0.078125 -6.9336 z M161.669953125 40.078125 l6.6992 -29.082 l9.8047 0 l-5 21.719 l10.82 0 l-1.6992 7.3633 l-20.625 0 z M184.6924140625 40.078125 l6.6992 -29.082 l9.8047 0 l-5 21.719 l10.82 0 l-1.6992 7.3633 l-20.625 0 z M229.257875 10.918 l10.723 0 l-13.594 17.031 l-2.7539 12.012 l-9.7461 0 l2.6758 -11.68 c-1.8359 -5.6836 -4.2969 -11.66 -5.9375 -17.363 l10.957 0 l2.2656 7.3633 c1.7773 -2.4609 3.6133 -4.9219 5.4102 -7.3633 z"></path></g><g id="SvgjsG1018" featureKey="inlineSymbolFeature-0" transform="matrix(0.5736854791567203,0,0,0.5736854791567203,188.2757079435108,15.269346698042156)" fill="#f4f9f4"><path xmlns="http://www.w3.org/2000/svg" d="M73.817,56.75c0.022,0.002,0.044,0.004,0.065,0.004c0.433,0,0.8-0.335,0.833-0.775l2.246-29.281  c0.019-0.266-0.086-0.523-0.285-0.697c-0.2-0.174-0.465-0.245-0.729-0.19c-6.749,1.47-13.09,1.357-20.566-0.364  c-2.842-0.651-5.436-1.584-7.945-2.49c-4.826-1.735-8.993-3.237-12.419-1.568c-0.27,0.133-0.448,0.399-0.469,0.699L33.818,32.76  c-0.032,0.458,0.316,0.86,0.778,0.89c0.478,0.035,0.862-0.314,0.893-0.777l0.695-10.163c2.731-1.036,6.268,0.236,10.685,1.825  c2.436,0.878,5.195,1.871,8.134,2.545c7.326,1.687,13.606,1.878,20.202,0.596l-2.161,28.176  C73.01,56.312,73.356,56.715,73.817,56.75z"></path><path xmlns="http://www.w3.org/2000/svg" d="M64.996,91.969c4.496,0,9.37-2.247,12.394-5.984c4.402-5.44,4.869-14.334,5.093-18.609l0.035-0.601  c0.361-6.468,0.964-15.902,0.971-15.996c0.043-0.692-0.481-1.288-1.174-1.334c-0.686-0.041-1.29,0.479-1.334,1.174  c-0.006,0.099-0.61,9.537-0.972,16.016l-0.033,0.61c-0.211,4.014-0.649,12.353-4.538,17.16c-3.241,4.003-8.945,5.998-13.261,4.64  c-1.958-0.614-4.354-2.187-4.642-6.186c-0.668-9.278,11.594-14.739,16.821-15.457c0.688-0.092,1.168-0.724,1.074-1.412  c-0.094-0.69-0.721-1.169-1.416-1.078c-6.787,0.931-19.759,7.391-18.984,18.13c0.3,4.154,2.631,7.219,6.395,8.4  C62.556,91.799,63.761,91.969,64.996,91.969z"></path><path xmlns="http://www.w3.org/2000/svg" d="M83.547,28.793c0.705,0.053,1.291-0.479,1.337-1.171L85.792,13.8c0.027-0.447-0.183-0.878-0.556-1.128  c-0.374-0.248-0.849-0.282-1.253-0.08c-10.301,5.062-25.022,2.359-34.519-1.504c-10.379-4.044-16.54-2.744-18.247-2.224  c-3.815,0.91-4.379,3.262-4.375,4.523L24.474,65.09c-6.987,1.396-18.685,7.742-17.949,17.953c0.301,4.17,2.649,7.24,6.442,8.421  c1.129,0.351,2.327,0.52,3.554,0.52c4.505,0,9.373-2.258,12.368-6.002c5.074-6.341,5.752-17.19,5.779-17.649  c0.041-0.695-0.488-1.288-1.181-1.33c-0.688-0.053-1.287,0.488-1.327,1.183c-0.007,0.103-0.664,10.516-5.232,16.225  c-3.199,3.998-8.88,6.004-13.212,4.652c-1.979-0.614-4.394-2.187-4.683-6.204c-0.669-9.278,11.594-14.739,16.821-15.457  c0.6-0.082,1.057-0.58,1.084-1.187l2.416-52.774c-0.001-0.667,0.252-1.619,2.481-2.141c0.029-0.009,0.058-0.016,0.086-0.025  c1.029-0.321,6.674-1.729,16.615,2.148c9.836,4.001,23.8,6.541,34.613,2.279l-0.773,11.754  C82.33,28.151,82.854,28.748,83.547,28.793z"></path></g><g id="SvgjsG1019" featureKey="nameRightFeature-0" transform="matrix(0.6359192435401397,0,0,0.6359192435401397,242.75700296377028,26.43205680675421)" fill="#f4f9f4"><path d="M43.2564921875 40 l-20.859 0 l6.6992 -29.082 l20.859 0 l-1.6992 7.3438 l-11.094 0 l-0.56641 2.4805 l10.215 0 l-1.6797 7.3438 l-10.215 0 l-1.0547 4.5508 l11.094 0 z M66.846109375 27.383 c0.91797 -2.5977 2.2656 -9.668 -1.8555 -9.668 c-3.9063 0 -5.9961 6.3672 -6.4258 9.668 c-1.0742 8.2813 5.6055 7.6172 8.2813 0 z M57.510109375 40.48828 c-8.2227 -0.99609 -10.254 -7.8516 -8.6133 -14.941 c4.7656 -20.684 35.098 -20.488 27.988 1.8359 c-1.6406 5.1367 -5.0586 9.5703 -10.078 11.777 c0.3125 1.2305 2.6563 1.7383 3.7109 1.7773 l-5.7227 5.7813 c-3.1445 -0.89844 -7.1484 -2.3828 -7.2852 -6.2305 z M89.9458203125 40.52734 c-7.793 0 -11.66 -3.7305 -9.9414 -11.348 l4.1602 -18.262 l9.7852 0 l-4.043 17.852 c-0.41016 1.7383 -0.87891 4.4531 1.6992 4.4531 c2.4414 0 3.2617 -2.4805 3.7305 -4.4531 l4.043 -17.852 l9.8047 0 l-4.1602 18.242 c-1.7578 7.7734 -7.3242 11.367 -15.078 11.367 z M124.0040625 10.918 l-6.6992 29.082 l-9.8242 0 l6.6992 -29.082 l9.8242 0 z M122.9833921875 40.078125 c2.2266 -9.707 4.4727 -19.395 6.6992 -29.082 l11.738 0 c7.0508 0 11.914 3.6133 8.6914 11.582 c-2.7344 6.6992 -8.3984 8.7109 -15.352 8.7109 l-2.0117 8.7891 l-9.7656 0 z M137.7684921875 18.223 c-0.44922 1.9531 -0.87891 3.8867 -1.3281 5.8398 c4.8828 -0.19531 6.7188 -5.8398 1.3281 -5.8398 z M149.287103125 40.078125 c2.2266 -9.707 4.4727 -19.395 6.6992 -29.082 l11.738 0 c7.0508 0 11.914 3.6133 8.6914 11.582 c-2.7344 6.6992 -8.3984 8.7109 -15.352 8.7109 l-2.0117 8.7891 l-9.7656 0 z M164.072203125 18.223 c-0.44922 1.9531 -0.87891 3.8867 -1.3281 5.8398 c4.8828 -0.19531 6.7188 -5.8398 1.3281 -5.8398 z M196.4889140625 40 l-20.859 0 l6.6992 -29.082 l20.859 0 l-1.6992 7.3438 l-11.094 0 l-0.56641 2.4805 l10.215 0 l-1.6797 7.3438 l-10.215 0 l-1.0547 4.5508 l11.094 0 z M230.33253125 25.508 c-1.6602 7.0898 -7.4023 12.852 -14.668 14.16 c-4.8828 0.68359 -10.371 0.37109 -15.273 0.37109 l6.6992 -29.141 c3.8672 0 13.789 -0.58594 17.656 1.0742 c5.4492 2.3047 6.7969 8.1836 5.5859 13.535 z M220.35153125 25.43 c1.1719 -5.0781 -0.27344 -7.3047 -5.0977 -7.3047 l-3.3789 14.648 c4.9023 0 7.2656 -2.0898 8.4766 -7.3438 z"></path></g>
			</g>
		</svg>
	